<svg xmlns="http://www.w3.org/2000/svg" version="1.1" xmlns:xlink="http://www.w3.org/1999/xlink" xmlns:svgjs="http://svgjs.dev/svgjs" width="1000" height="623" viewBox="0 0 1000 623"><g transform="matrix(1,0,0,1,-0.6060606060606233,0.2522267206477409)"><svg viewBox="0 0 396 247" data-background-color="#ffffff" preserveAspectRatio="xMidYMid meet" height="623" width="1000" xmlns="http://www.w3.org/2000/svg" xmlns:xlink="http://www.w3.org/1999/xlink"><g id="tight-bounds" transform="matrix(1,0,0,1,0.2400000000000091,-0.09999999999999432)"><svg viewBox="0 0 395.52 247.2" height="247.2" width="395.52"><g><svg></svg></g><g><svg viewBox="0 0 395.52 247.2" height="247.2" width="395.52"><g transform="matrix(1,0,0,1,104.90926829268294,37.08)"><svg viewBox="0 0 185.7014634146341 173.04" height="173.04" width="185.7014634146341"><g><svg viewBox="0 0 185.7014634146341 173.04" height="173.04" width="185.7014634146341"><g><svg viewBox="0 0 185.7014634146341 173.04" height="173.04" width="185.7014634146341"><g><svg viewBox="0 0 185.7014634146341 173.04" height="173.04" width="185.7014634146341"><g><svg viewBox="0 0 185.7014634146341 173.04" height="173.04" width="185.7014634146341"><g><svg viewBox="0 0 185.7014634146341 173.04" height="173.04" width="185.7014634146341"><g transform="matrix(1,0,0,1,0,0)"><svg width="185.7014634146341" viewBox="3.799999952316284 -36.54999923706055 39.60000228881836 36.89999771118164" height="173.04" data-palette-color="#9c3ee6"><path d="M21.35 0L5.3 0Q4.75 0 4.28-0.33 3.8-0.65 3.8-1.3L3.8-1.3 3.8-35.35Q3.8-36 4.3-36.27 4.8-36.55 5.45-36.55L5.45-36.55Q6.05-36.55 6.58-36.27 7.1-36 7.1-35.35L7.1-35.35 7.1-3.05 21.35-3.05Q21.95-3.05 22.2-2.58 22.45-2.1 22.45-1.55L22.45-1.55Q22.45-0.95 22.2-0.48 21.95 0 21.35 0L21.35 0ZM33.9 0.35L33.9 0.35Q31.35 0.35 29.2-0.98 27.05-2.3 25.72-4.48 24.4-6.65 24.4-9.15L24.4-9.15 24.4-14.6Q24.4-17.1 25.7-19.23 27-21.35 29.15-22.65 31.3-23.95 33.9-23.95L33.9-23.95Q36.45-23.95 38.62-22.68 40.8-21.4 42.1-19.3 43.4-17.2 43.4-14.6L43.4-14.6 43.4-9.15Q43.4-6.7 42.1-4.5 40.8-2.3 38.62-0.98 36.45 0.35 33.9 0.35ZM33.9-2.65L33.9-2.65Q35.65-2.65 37.05-3.58 38.45-4.5 39.3-6 40.15-7.5 40.15-9.15L40.15-9.15 40.15-14.6Q40.15-16.2 39.32-17.65 38.5-19.1 37.07-20.03 35.65-20.95 33.9-20.95L33.9-20.95Q32.15-20.95 30.75-20.03 29.35-19.1 28.5-17.65 27.65-16.2 27.65-14.6L27.65-14.6 27.65-9.15Q27.65-7.5 28.5-6 29.35-4.5 30.77-3.58 32.2-2.65 33.9-2.65Z" opacity="1" transform="matrix(1,0,0,1,0,0)" fill="#9c3ee6" class="undefined-text-0" data-fill-palette-color="primary" id="text-0"></path></svg></g></svg></g></svg></g></svg></g><g></g></svg></g></svg></g></svg></g><g mask="url(#706009e9-219b-4801-8e2b-23e9af959bf8)"><g transform="matrix(4.086666666666667, 0, 0, 4.086666666666667, 75.15999999999998, 0.9999999999999858)"><svg xmlns="http://www.w3.org/2000/svg" xmlns:xlink="http://www.w3.org/1999/xlink" version="1.1" x="0" y="0" viewBox="0 0 60 60" enable-background="new 0 0 60 60" xml:space="preserve" height="60" width="60" class="icon-none" data-fill-palette-color="accent" id="none"><g fill="#35185a" data-fill-palette-color="accent"><path fill="#35185a" d="M37.54 52.33c0.14 0.4 0.52 0.67 0.94 0.67h11.39c0.44 0 0.82-0.28 0.95-0.7l3.12-9.89c0.12-0.37 0.01-0.78-0.29-1.04l-9-8.11c-0.38-0.34-0.95-0.34-1.33 0l-9 8.03c-0.3 0.27-0.41 0.69-0.28 1.08L37.54 52.33zM44 35.34l7.86 7.08L49.15 51H39.2l-3.03-8.67L44 35.34z" data-fill-palette-color="accent"></path><path fill="#35185a" d="M59 0H1C0.45 0 0 0.45 0 1v58c0 0.55 0.45 1 1 1h58c0.55 0 1-0.45 1-1V1C60 0.45 59.55 0 59 0zM58 58H2V2h56V58z" data-fill-palette-color="accent"></path><path fill="#35185a" d="M7 26h18c0.55 0 1-0.45 1-1V7c0-0.55-0.45-1-1-1H7C6.45 6 6 6.45 6 7v18C6 25.55 6.45 26 7 26zM8 8h16v16H8V8z" data-fill-palette-color="accent"></path><path fill="#35185a" d="M35 26h18c0.01 0 0.01 0 0.02 0 0.55 0 1-0.45 1-1 0-0.23-0.08-0.44-0.21-0.61L44.89 6.55c-0.34-0.68-1.45-0.68-1.79 0l-9 18c-0.16 0.31-0.14 0.68 0.04 0.97C34.33 25.82 34.65 26 35 26zM44 9.24L51.38 24H36.62L44 9.24z" data-fill-palette-color="accent"></path><path fill="#35185a" d="M16 54c5.51 0 10-4.49 10-10s-4.49-10-10-10S6 38.49 6 44 10.49 54 16 54zM16 36c4.41 0 8 3.59 8 8s-3.59 8-8 8-8-3.59-8-8S11.59 36 16 36z" data-fill-palette-color="accent"></path></g></svg></g></g></svg></g><defs><mask id="817ef9ed-ff03-4190-a0a3-f2fbd2329bb6"><rect width="640" height="400" fill="white"></rect><rect width="204.27160975609752" height="254.74118208" fill="black" x="217.86419512195124" y="72.62940896" id="transform-me" transform="matrix(1,0,0,1,-122.24000000000001,-76.4)"></rect></mask><mask id="cc077a41-04ec-43ec-bbdf-15a732fec019"><rect width="640" height="400" fill="white"></rect><rect width="204.27160975609752" height="254.74118208" fill="black" x="217.86419512195124" y="72.62940896" id="transform-me" transform="matrix(1,0,0,1,-122.24000000000001,-76.4)"></rect></mask><mask id="3de00d62-bdb6-469f-be07-d0864f648c50"><rect width="640" height="400" fill="white"></rect><rect width="204.27160975609752" height="254.74118208" fill="black" x="217.86419512195124" y="72.62940896" id="transform-me" transform="matrix(1,0,0,1,-122.24000000000001,-76.4)"></rect></mask><mask id="0883f29e-ae4f-4481-b6e8-37b82a406443"><rect width="640" height="400" fill="white"></rect><rect width="204.27160975609752" height="254.74118208" fill="black" x="217.86419512195124" y="72.62940896" id="transform-me" transform="matrix(1,0,0,1,-122.24000000000001,-76.4)"></rect></mask><mask id="c9302cdc-006c-4fbf-9800-1dc5cac88d4a"><rect width="640" height="400" fill="white"></rect><rect width="204.27160975609752" height="254.74118208" fill="black" x="217.86419512195124" y="72.62940896" id="transform-me" transform="matrix(1,0,0,1,-122.24000000000001,-76.4)"></rect></mask><mask id="b3a83cee-ecbe-431a-88eb-a4b5042b415d"><rect width="640" height="400" fill="white"></rect><rect width="204.27160975609752" height="254.74118208" fill="black" x="217.86419512195124" y="72.62940896" id="transform-me" transform="matrix(1,0,0,1,-122.24000000000001,-76.4)"></rect></mask><mask id="a5290df4-59e9-4dcd-ae76-635f165686ab"><rect width="640" height="400" fill="white"></rect><rect width="204.27160975609752" height="254.74118208" fill="black" x="217.86419512195124" y="72.62940896" id="transform-me" transform="matrix(1,0,0,1,-122.24000000000001,-76.4)"></rect></mask><mask id="bdf92542-4aa3-4c46-a27f-28efcfbb9d0f"><rect width="640" height="400" fill="white"></rect><rect width="204.27160975609752" height="254.74118208" fill="black" x="217.86419512195124" y="72.62940896" id="transform-me" transform="matrix(1,0,0,1,-122.24000000000001,-76.4)"></rect></mask><mask id="5680140d-417a-4ab2-831e-50e0c9f54ef4"><rect width="640" height="400" fill="white"></rect><rect width="204.27160975609752" height="254.74118208" fill="black" x="217.86419512195124" y="72.62940896" id="transform-me" transform="matrix(1,0,0,1,-122.24000000000001,-76.4)"></rect></mask><mask id="1ec0a7d5-c733-49bb-8fbc-f30276720aea"><rect width="640" height="400" fill="white"></rect><rect width="204.27160975609752" height="254.74118208" fill="black" x="217.86419512195124" y="72.62940896" id="transform-me" transform="matrix(1,0,0,1,-122.24000000000001,-76.4)"></rect></mask><mask id="099457f8-72ff-4469-bb35-f6192ecaca88"><rect width="640" height="400" fill="white"></rect><rect width="204.27160975609752" height="254.74118208" fill="black" x="217.86419512195124" y="72.62940896" id="transform-me" transform="matrix(1,0,0,1,-122.24000000000001,-76.4)"></rect></mask><mask id="5688f0c0-f048-4c6f-96e7-fea4765fa4fd"><rect width="640" height="400" fill="white"></rect><rect width="204.27160975609752" height="254.74118208" fill="black" x="217.86419512195124" y="72.62940896" id="transform-me" transform="matrix(1,0,0,1,-122.24000000000001,-76.4)"></rect></mask><mask id="4bd2cb4a-ce81-4010-bf1c-b3303ea08b3f"><rect width="640" height="400" fill="white"></rect><rect width="204.27160975609752" height="254.74118208" fill="black" x="217.86419512195124" y="72.62940896" id="transform-me" transform="matrix(1,0,0,1,-122.24000000000001,-76.4)"></rect></mask><mask id="5346cf13-fbdf-44fc-a768-df889a71ccd1"><rect width="640" height="400" fill="white"></rect><rect width="204.27160975609752" height="254.74118208" fill="black" x="217.86419512195124" y="72.62940896" id="transform-me" transform="matrix(1,0,0,1,-122.24000000000001,-76.4)"></rect></mask><mask id="8e0336a0-579a-4e6e-8a8d-c5e236e417b3"><rect width="640" height="400" fill="white"></rect><rect width="204.27160975609752" height="254.74118208" fill="black" x="217.86419512195124" y="72.62940896" id="transform-me" transform="matrix(1,0,0,1,-122.24000000000001,-76.4)"></rect></mask><mask id="917d44d7-2e6c-472c-9e39-ac76c0ef79f9"><rect width="640" height="400" fill="white"></rect><rect width="204.27160975609752" height="254.74118208" fill="black" x="217.86419512195124" y="72.62940896" id="transform-me" transform="matrix(1,0,0,1,-122.24000000000001,-76.4)"></rect></mask><mask id="e5aed666-3f74-4c19-834a-1119c1c2f252"><rect width="640" height="400" fill="white"></rect><rect width="204.27160975609752" height="254.74118208" fill="black" x="217.86419512195124" y="72.62940896" id="transform-me" transform="matrix(1,0,0,1,-122.24000000000001,-76.4)"></rect></mask><mask id="ffea09a5-8a35-4053-afa9-1cd0cd1ad8b3"><rect width="640" height="400" fill="white"></rect><rect width="204.27160975609752" height="254.74118208" fill="black" x="217.86419512195124" y="72.62940896" id="transform-me" transform="matrix(1,0,0,1,-122.24000000000001,-76.4)"></rect></mask><mask id="6186c3e6-9a1b-4a96-9e70-1f44677b058b"><rect width="640" height="400" fill="white"></rect><rect width="204.27160975609752" height="254.74118208" fill="black" x="217.86419512195124" y="72.62940896" id="transform-me" transform="matrix(1,0,0,1,-122.24000000000001,-76.4)"></rect></mask><mask id="5f2a783d-576f-4ce9-9e58-0dff269cb238"><rect width="640" height="400" fill="white"></rect><rect width="204.27160975609752" height="254.74118208" fill="black" x="217.86419512195124" y="72.62940896" id="transform-me" transform="matrix(1,0,0,1,-122.24000000000001,-76.4)"></rect></mask><mask id="6c0172b4-231d-4005-b11c-a7807535831e"><rect width="640" height="400" fill="white"></rect><rect width="204.27160975609752" height="254.74118208" fill="black" x="217.86419512195124" y="72.62940896" id="transform-me" transform="matrix(1,0,0,1,-122.24000000000001,-76.4)"></rect></mask><mask id="b9c9f127-7fce-4540-9aef-ed2ba114faa1"><rect width="640" height="400" fill="white"></rect><rect width="204.27160975609752" height="254.74118208" fill="black" x="217.86419512195124" y="72.62940896" id="transform-me" transform="matrix(1,0,0,1,-122.24000000000001,-76.4)"></rect></mask><mask id="a37e6c2c-01be-4a1f-a35b-911c2ed9c9b3"><rect width="640" height="400" fill="white"></rect><rect width="204.27160975609752" height="254.74118208" fill="black" x="217.86419512195124" y="72.62940896" id="transform-me" transform="matrix(1,0,0,1,-122.24000000000001,-76.4)"></rect></mask><mask id="98de1b30-534e-4f8b-8780-f14d2feb0ce3"><rect width="640" height="400" fill="white"></rect><rect width="204.27160975609752" height="254.74118208" fill="black" x="217.86419512195124" y="72.62940896" id="transform-me" transform="matrix(1,0,0,1,-122.24000000000001,-76.4)"></rect></mask><mask id="ae7423db-a7bb-4a40-ad29-138de1565e97"><rect width="640" height="400" fill="white"></rect><rect width="204.27160975609752" height="254.74118208" fill="black" x="217.86419512195124" y="72.62940896" id="transform-me" transform="matrix(1,0,0,1,-122.24000000000001,-76.4)"></rect></mask><mask id="706009e9-219b-4801-8e2b-23e9af959bf8"><rect width="640" height="400" fill="white"></rect><rect width="204.27160975609752" height="254.74118208" fill="black" x="217.86419512195124" y="72.62940896" id="transform-me" transform="matrix(1,0,0,1,-122.24000000000001,-76.4)"></rect></mask></defs></svg><rect width="395.52" height="247.2" fill="none" stroke="none" visibility="hidden"></rect></g></svg></g></svg>